# xmcd
#
# Track frame offsets:
#   150
#   16185
#   32131
#   49359
#   66669
#   82467
#   100768
#   119042
#   135494
#   160171
#   176578
#   191159
#   209147
#   222241
#   238044
#   260127
#   280548
#   296357
#   313841
#   330581
#
# Disc length: 4622 seconds
#
# Revision: 0
# Processed by: cddbd v1.5.2PL0 Copyright (c) Steve Scherf et al.
# Submitted via: uFREEDB ActiveX Control 1.5
#
DISCID=42120c14
DTITLE=muitoss - todos
DYEAR=2007
DGENRE=Hip Hop
TTITLE0=beyonce
TTITLE1=50 cent
TTITLE2=beyonce 1
TTITLE3=beyonce2
TTITLE4=beyonce3
TTITLE5=black
TTITLE6=mariana
TTITLE7=girls
TTITLE8=tanana
TTITLE9=gatinho
TTITLE10=cassie
TTITLE11=cherish
TTITLE12=rihanna
TTITLE13=não sei
TTITLE14=tv
TTITLE15=paula
TTITLE16=door
TTITLE17=pizza
TTITLE18=gatinha
TTITLE19=fim
EXTD=
EXTT0=
EXTT1=
EXTT2=
EXTT3=
EXTT4=
EXTT5=
EXTT6=
EXTT7=
EXTT8=
EXTT9=
EXTT10=
EXTT11=
EXTT12=
EXTT13=
EXTT14=
EXTT15=
EXTT16=
EXTT17=
EXTT18=
EXTT19=
PLAYORDER=
